<svg xmlns="http://www.w3.org/2000/svg" width="256" height="256" viewBox="0 0 256 256"><title>Typix Reader</title><defs><linearGradient id="bg" x1="0" y1="0" x2="1" y2="1"><stop stop-color="#6bafff"/><stop offset="1" stop-color="#367dcf"/></linearGradient></defs><rect x="8" y="8" width="240" height="240" rx="52" fill="url(#bg)"/><rect x="8" y="8" width="240" height="240" rx="52" fill="none" stroke="#ffffff" stroke-opacity=".18" stroke-width="2"/><path d="M42 68c37-11 66-6 86 15v117c-26-22-52-25-86-15z" fill="#f1faff"/><path d="M214 68c-37-11-66-6-86 15v117c26-22 52-25 86-15z" fill="#fff9e9"/><path d="M128 82v115" stroke="#2e74bf" stroke-width="7"/><path d="M59 102c20-4 38-1 51 7m-51 17c20-4 38-1 51 7m37-24c14-8 31-11 50-7m-50 31c14-8 31-11 50-7" fill="none" stroke="#9dcae6" stroke-width="6" stroke-linecap="round"/><path d="M169 66v46l14-10 14 10V63" fill="#f0a93d"/></svg>
